# xmcd
#
# Track frame offsets:
# 150
# 15433
# 30059
# 44513
# 57771
# 73471
# 85931
# 96718
# 112035
# 126520
# 139177
# 153653
# 170252
# 182717
# 194452
# 210874
# 233141
# 249953
#
# Disc length: 3560 seconds
#
#
# Revision: 0
# Processed by: cddbd v1.5.1PL0 Copyright (c) Steve Scherf et al.
# Submitted via: FreeRIP 2.90 
#
DISCID=fa0de612
DTITLE=Dolly Parton - The ultimate Hit collection
DYEAR=1998
DGENRE=Country
TTITLE0=Tennessee homesick blues
TTITLE1=harper valley P.T.A.
TTITLE2=Sweet music man
TTITLE3=Here you come again
TTITLE4=Old Flames (Can't Hold a candle to you)
TTITLE5=In the ghetto
TTITLE6=Love is like a butterfly
TTITLE7=You're the only one
TTITLE8=Heartbreak express
TTITLE9=Nine to five
TTITLE10=We used to
TTITLE11=She don't love you like I love you
TTITLE12=D.I.V.O.R.C.E.
TTITLE13=The last thing on my mind
TTITLE14=Hard Candy Christmas
TTITLE15=Light of a clear blue morning
TTITLE16=The great pretender
TTITLE17=Save the last dance for me
EXTD=
EXTT0=
EXTT1=
EXTT2=
EXTT3=
EXTT4=
EXTT5=
EXTT6=
EXTT7=
EXTT8=
EXTT9=
EXTT10=
EXTT11=
EXTT12=
EXTT13=
EXTT14=
EXTT15=
EXTT16=
EXTT17=
PLAYORDER=
